<svg width="60" height="17" viewBox="0 0 60 17" fill="none" xmlns="http://www.w3.org/2000/svg">
<path d="M2.90759 8.85692C1.9226 8.25926 0.952838 7.62614 0 6.95756C1.63319 4.63781 3.26808 2.31975 4.90127 0C5.69841 0.558834 6.51078 1.08897 7.33499 1.58871C5.85919 4.01145 4.38339 6.43418 2.90929 8.85692H2.90759Z" fill="black"/>
<path d="M6.49176 10.8424C5.47291 10.3291 4.46761 9.7804 3.47754 9.19624C4.92118 6.75493 6.36652 4.31362 7.81016 1.87231C8.63945 2.36024 9.48059 2.81946 10.3319 3.24829C9.0524 5.77908 7.77123 8.30987 6.49176 10.8407V10.8424Z" fill="black"/>
<path d="M10.1867 12.5274C9.14074 12.0985 8.10328 11.6343 7.08105 11.1345C8.33007 8.58853 9.57739 6.04086 10.8264 3.49487C11.6828 3.91358 12.5493 4.30189 13.4243 4.65981C12.3445 7.28177 11.2664 9.90542 10.1867 12.5274Z" fill="black"/>
<path d="M13.9747 13.9083C12.9051 13.5639 11.844 13.184 10.793 12.7687C11.8389 10.1332 12.8848 7.49777 13.9307 4.8623C14.8091 5.2101 15.6976 5.5275 16.5929 5.81621C15.7196 8.51414 14.848 11.2121 13.9747 13.91V13.9083Z" fill="black"/>
<path d="M17.8345 14.9905C16.7463 14.7305 15.6648 14.4351 14.5918 14.1041C15.4312 11.3961 16.2707 8.68802 17.1101 5.97827C18.0071 6.25516 18.9126 6.50165 19.8231 6.71944C19.1614 9.47647 18.4979 12.2335 17.8362 14.9888L17.8345 14.9905Z" fill="black"/>
<path d="M21.7513 15.7689C20.6495 15.5933 19.5528 15.3823 18.4629 15.1358C19.0908 12.372 19.7204 9.60655 20.3483 6.84277C21.2605 7.04875 22.1778 7.22602 23.0985 7.37291C22.65 10.1721 22.1998 12.9714 21.7513 15.7706V15.7689Z" fill="black"/>
<path d="M25.7046 16.2449C24.5961 16.1537 23.4892 16.0271 22.3857 15.865C22.8004 13.0607 23.215 10.2564 23.6297 7.45215C24.552 7.58721 25.4778 7.69358 26.407 7.76955C26.1734 10.5941 25.9398 13.4204 25.7046 16.2449Z" fill="black"/>
<path d="M29.6788 16.4205C28.5669 16.4137 27.455 16.3715 26.3447 16.2939C26.5444 13.4659 26.7424 10.638 26.9422 7.81006C27.8713 7.87421 28.8004 7.90967 29.7313 7.91642C29.7144 10.7511 29.6957 13.5858 29.6788 16.4205Z" fill="black"/>
<path d="M33.6541 16.2939C32.5439 16.3715 31.432 16.4137 30.32 16.4205C30.3031 13.5858 30.2845 10.7511 30.2676 7.91642C31.1984 7.91136 32.1276 7.8759 33.0567 7.81006C33.2564 10.638 33.4544 13.4659 33.6541 16.2939Z" fill="black"/>
<path d="M37.613 15.865C36.5095 16.0271 35.4027 16.1537 34.2942 16.2449C34.0606 13.4204 33.827 10.5941 33.5918 7.76955C34.5192 7.69358 35.445 7.58721 36.3691 7.45215C36.7837 10.2564 37.1984 13.0607 37.613 15.865Z" fill="black"/>
<path d="M41.536 15.1358C40.446 15.3823 39.3493 15.5933 38.2476 15.7689C37.7991 12.9697 37.3489 10.1704 36.9004 7.3712C37.8211 7.22431 38.7384 7.04704 39.6506 6.84106C40.2785 9.60484 40.9081 12.3703 41.536 15.1341V15.1358Z" fill="black"/>
<path d="M45.4064 14.1042C44.3334 14.4351 43.2519 14.7305 42.1637 14.9905C41.5019 12.2335 40.8385 9.47649 40.1768 6.72115C41.0873 6.50336 41.991 6.25686 42.8897 5.97998C43.7292 8.68804 44.5686 11.3961 45.4081 14.1059L45.4064 14.1042Z" fill="black"/>
<path d="M49.2072 12.7704C48.1562 13.1857 47.095 13.5656 46.0254 13.91C45.1521 11.2121 44.2805 8.51414 43.4072 5.81621C44.3025 5.5275 45.1894 5.2101 46.0694 4.8623C47.1153 7.49777 48.1613 10.1332 49.2072 12.7687V12.7704Z" fill="black"/>
<path d="M52.9174 11.1345C51.8935 11.6343 50.8578 12.0985 49.8118 12.5274C48.7321 9.90542 47.654 7.28177 46.5742 4.65981C47.4492 4.30189 48.3157 3.91358 49.1721 3.49487C50.4211 6.04086 51.6684 8.58853 52.9174 11.1345Z" fill="black"/>
<path d="M56.5204 9.19626C55.5303 9.78042 54.5233 10.3291 53.5061 10.8424C52.2267 8.31158 50.9455 5.78079 49.666 3.25C50.5173 2.82117 51.3584 2.36195 52.1877 1.87402C53.6314 4.31533 55.0767 6.75664 56.5204 9.19795V9.19626Z" fill="black"/>
<path d="M59.9983 6.95756C59.0455 7.62614 58.0757 8.25926 57.0907 8.85692C55.6149 6.43418 54.1391 4.01145 52.665 1.58871C53.4893 1.08897 54.2999 0.558834 55.0988 0C56.7319 2.31975 58.3668 4.63781 60 6.95756H59.9983Z" fill="black"/>
</svg>
