<svg width="61" height="17" viewBox="0 0 61 17" fill="none" xmlns="http://www.w3.org/2000/svg">
<path d="M7.76367 14.7762C6.933 15.2663 6.11422 15.7853 5.30904 16.3333C3.70546 13.9696 2.10358 11.6075 0.5 9.24382C1.45807 8.59035 2.43313 7.97261 3.42347 7.38892C4.87077 9.85134 6.31807 12.3138 7.76367 14.7762Z" fill="black"/>
<path d="M10.7822 13.1477C9.92432 13.568 9.07837 14.019 8.24261 14.4971C6.82588 12.0177 5.40916 9.53656 3.99414 7.05712C4.98788 6.48704 5.99692 5.95099 7.01784 5.44897C8.27318 8.0152 9.52683 10.5814 10.7822 13.146V13.1477Z" fill="black"/>
<path d="M13.8895 11.7659C13.0096 12.1182 12.1398 12.4977 11.2786 12.9078C10.0555 10.3263 8.83244 7.74471 7.60938 5.16487C8.63539 4.67647 9.6716 4.2238 10.7197 3.80518C11.7763 6.45819 12.8346 9.11291 13.8912 11.7659H13.8895Z" fill="black"/>
<path d="M17.069 10.6324C16.1704 10.9149 15.2803 11.2263 14.3969 11.5667C13.3726 8.90006 12.3483 6.23343 11.3223 3.5668C12.3738 3.16178 13.4355 2.7908 14.5039 2.45386C15.3584 5.18005 16.2128 7.90624 17.069 10.6324Z" fill="black"/>
<path d="M20.3065 9.74597C19.3943 9.95869 18.4872 10.202 17.5869 10.4726C16.7647 7.73621 15.9425 4.99981 15.1221 2.2634C16.194 1.94007 17.2743 1.65248 18.3615 1.39722C19.0104 4.17957 19.6593 6.96192 20.3082 9.74427L20.3065 9.74597Z" fill="black"/>
<path d="M23.5901 9.10605C22.6677 9.2507 21.7487 9.42257 20.8331 9.62508C20.2181 6.83422 19.6032 4.04507 18.9883 1.25421C20.0772 1.01426 21.1711 0.806649 22.2702 0.636475C22.7101 3.45967 23.1501 6.28286 23.5901 9.10605Z" fill="black"/>
<path d="M26.903 8.71462C25.9739 8.7895 25.0464 8.8933 24.1223 9.02604C23.7163 6.19774 23.3103 3.36944 22.9043 0.541146C24.0051 0.382884 25.1092 0.258657 26.2151 0.170166C26.4444 3.01888 26.6737 5.8659 26.9014 8.71462H26.903Z" fill="black"/>
<path d="M30.2305 8.57168C29.2997 8.57679 28.3671 8.61252 27.4379 8.67549C27.2425 5.82507 27.0489 2.97465 26.8535 0.124227C27.9611 0.0476488 29.0703 0.00680697 30.1796 0C30.1966 2.85723 30.2136 5.71445 30.2305 8.57168Z" fill="black"/>
<path d="M33.5603 8.67549C32.6311 8.61252 31.6985 8.57679 30.7676 8.57168C30.7846 5.71445 30.8016 2.85723 30.8185 0C31.9278 0.00680697 33.0371 0.0476488 34.1446 0.124227C33.9493 2.97465 33.7556 5.82507 33.5603 8.67549Z" fill="black"/>
<path d="M36.8775 9.02604C35.9534 8.8933 35.0259 8.7895 34.0967 8.71462C34.326 5.8659 34.5553 3.01888 34.783 0.170166C35.8888 0.258657 36.993 0.382884 38.0937 0.541146C37.6877 3.36944 37.2818 6.19774 36.8758 9.02604H36.8775Z" fill="black"/>
<path d="M40.1662 9.62508C39.2523 9.42257 38.3333 9.2507 37.4092 9.10605C37.8491 6.28286 38.2891 3.45967 38.7291 0.636475C39.8281 0.808351 40.9221 1.01426 42.011 1.25421C41.396 4.04507 40.7811 6.83422 40.1662 9.62508Z" fill="black"/>
<path d="M43.413 10.4726C42.5127 10.202 41.6056 9.95869 40.6934 9.74598C41.3423 6.96363 41.9912 4.18128 42.6401 1.39893C43.7272 1.65249 44.8076 1.94178 45.8795 2.26511C45.0573 5.00152 44.2352 7.73792 43.4147 10.4743L43.413 10.4726Z" fill="black"/>
<path d="M46.6027 11.5667C45.7194 11.2263 44.8293 10.9149 43.9307 10.6324C44.7851 7.90624 45.6396 5.18005 46.494 2.45386C47.5642 2.7908 48.6242 3.16178 49.6757 3.5668C48.6514 6.23343 47.6254 8.90006 46.601 11.5667H46.6027Z" fill="black"/>
<path d="M49.7213 12.9078C48.86 12.4977 47.9886 12.1165 47.1104 11.7659C48.1669 9.11291 49.2252 6.45819 50.2818 3.80518C51.3299 4.2238 52.3661 4.67817 53.3922 5.16487C52.1691 7.74641 50.946 10.328 49.723 12.9078H49.7213Z" fill="black"/>
<path d="M52.7554 14.4972C51.9196 14.019 51.0737 13.568 50.2158 13.1477C51.4712 10.5814 52.7248 8.01521 53.9801 5.45068C55.0011 5.9527 56.0084 6.48705 57.0038 7.05883C55.5871 9.53827 54.1704 12.0194 52.7554 14.4989V14.4972Z" fill="black"/>
<path d="M55.691 16.3333C54.8858 15.7853 54.067 15.2663 53.2363 14.7762C54.6836 12.3138 56.1309 9.85134 57.5765 7.38892C58.5652 7.97261 59.5402 8.59035 60.5 9.24382C58.8964 11.6075 57.2945 13.9696 55.691 16.3333Z" fill="black"/>
</svg>
