<svg width="61" height="14" viewBox="0 0 61 14" fill="none" xmlns="http://www.w3.org/2000/svg">
<path d="M3.67705 13.4769H0.5C7.41541 10.8821 5.22753 3.63655 0.5 0H3.67705C7.96127 3.6123 9.82494 10.687 3.67705 13.4769Z" fill="black"/>
<path d="M7.46416 13.4769H4.28711C10.2916 10.6572 8.48532 3.60017 4.28711 0H7.46416C11.2213 3.59576 12.6901 10.4467 7.46416 13.4769Z" fill="black"/>
<path d="M11.2532 13.4769H8.07617C13.1555 10.4158 11.7495 3.58915 8.07617 0H11.2532C14.1524 3.19341 15.9532 10.7741 11.2532 13.4769Z" fill="black"/>
<path d="M15.0423 13.4769H11.8652C16.4009 10.7245 14.6993 3.20223 11.8652 0H15.0423C17.4298 3.19011 18.8093 10.5679 15.0423 13.4769Z" fill="black"/>
<path d="M18.8305 13.4769H15.6523C19.2473 10.5062 17.9792 3.21436 15.6523 0H18.8305C21.0724 3.14491 21.3602 10.3574 18.8305 13.4769Z" fill="black"/>
<path d="M22.6185 13.4769H19.4414C21.8046 10.2901 21.6127 3.18901 19.4414 0H22.6185C24.3928 3.53072 24.0873 9.86685 22.6185 13.4769Z" fill="black"/>
<path d="M26.4067 13.4769H23.2285C24.521 9.77095 24.9235 3.61671 23.2285 0H26.4067C27.6054 4.1855 26.6835 9.20656 26.4067 13.4769Z" fill="black"/>
<path d="M30.1957 13.4769H27.0176C27.0738 9.11507 28.0917 4.29132 27.0176 0H30.1957C30.4383 4.38612 29.1227 9.16577 30.1957 13.4769Z" fill="black"/>
<path d="M33.9821 13.4769H30.8051C29.5524 9.2749 30.8757 4.30676 30.8051 0H33.9821C33.2367 3.79969 32.0082 9.89551 33.9821 13.4769Z" fill="black"/>
<path d="M37.771 13.4769H34.5928C32.5031 9.99361 33.704 3.71702 34.5928 0H37.771C35.947 3.81953 35.4938 9.82496 37.771 13.4769Z" fill="black"/>
<path d="M41.5594 13.4769H38.3812C35.621 10.4323 36.6157 3.31798 38.3812 0H41.5594C38.7286 3.48553 38.7253 10.1182 41.5594 13.4769Z" fill="black"/>
<path d="M45.348 13.4769H42.1709C39.2574 10.1501 39.1758 3.44033 42.1709 0H45.348C41.4927 3.20334 42.043 10.2846 45.348 13.4769Z" fill="black"/>
<path d="M49.1354 13.4769H45.9583C42.5585 10.3475 41.9454 3.11625 45.9583 0H49.1354C44.2722 2.86823 45.3651 10.4323 49.1354 13.4769Z" fill="black"/>
<path d="M52.9244 13.4769H49.7473C45.9075 10.4456 44.7221 2.81973 49.7473 0H52.9244C50.581 1.01854 49.3481 3.67292 49.1188 6.09692C48.8144 9.30246 50.3605 11.6857 52.9244 13.4769Z" fill="black"/>
<path d="M56.7118 13.4769H53.5348C50.9389 11.6978 49.32 9.31789 49.6321 6.08039C49.8681 3.63214 51.155 0.988779 53.5348 0H56.7118C54.1501 0.839966 52.571 3.41057 52.3206 5.9944C51.9865 9.43143 53.934 11.7584 56.7118 13.4769Z" fill="black"/>
<path d="M60.4998 13.4769H57.3228C54.5173 11.7694 52.4927 9.44686 52.8345 5.97787C53.0915 3.36648 54.7313 0.814613 57.3228 0H60.4998C57.7892 0.681232 55.7789 3.13169 55.4911 5.88638C55.1128 9.50529 57.5863 11.851 60.4998 13.4769Z" fill="black"/>
</svg>
