<svg width="61" height="20" viewBox="0 0 61 20" fill="none" xmlns="http://www.w3.org/2000/svg">
<path d="M3.42323 12.3329C2.43398 11.7502 1.4589 11.1332 0.5 10.4818V0.291992H3.67812C3.59316 4.30561 3.50819 8.31924 3.42323 12.3329Z" fill="black"/>
<path d="M7.01852 14.2686C5.99691 13.7689 4.98945 13.2328 3.99414 12.6644C4.09124 8.5395 4.19037 4.41461 4.28747 0.291748H7.4656C7.3159 4.95071 7.16822 9.60966 7.01852 14.2686Z" fill="black"/>
<path d="M10.7177 15.9113C9.66983 15.4925 8.63406 15.0414 7.6084 14.5539C7.76417 9.79982 7.91994 5.04579 8.07571 0.291748H11.2538C11.0758 5.49894 10.8958 10.7061 10.7177 15.9113Z" fill="black"/>
<path d="M14.5054 17.2606C13.4352 16.9248 12.3752 16.5546 11.3232 16.15C11.5033 10.8639 11.6833 5.57783 11.8654 0.291748H15.0435C14.8635 5.94804 14.6855 11.6043 14.5054 17.2606Z" fill="black"/>
<path d="M18.3609 18.3146C17.2745 18.0617 16.1943 17.7724 15.1221 17.4508C15.2981 11.7318 15.4761 6.01278 15.6521 0.291748H18.8302C18.6744 6.30004 18.5187 12.3063 18.3609 18.3146Z" fill="black"/>
<path d="M22.2716 19.0732C21.1731 18.9013 20.0787 18.697 18.9883 18.4562C19.14 12.4014 19.2897 6.34657 19.4414 0.291748H22.6196C22.5042 6.55292 22.3889 12.8121 22.2716 19.0732Z" fill="black"/>
<path d="M26.2159 19.5385C25.1094 19.4495 24.0048 19.3261 22.9043 19.1683C23.0115 12.8768 23.1208 6.58326 23.228 0.291748H26.4061C26.3434 6.70666 26.2787 13.1236 26.2159 19.5385Z" fill="black"/>
<path d="M30.1793 19.7105C29.0707 19.7044 27.9601 19.6619 26.8535 19.5871C26.9081 13.156 26.9628 6.72487 27.0154 0.291748H30.1935C30.1894 6.76533 30.1834 13.2369 30.1793 19.7105Z" fill="black"/>
<path d="M34.1447 19.5871C33.0381 19.6619 31.9274 19.7044 30.8188 19.7105C30.8148 13.2369 30.8087 6.76533 30.8047 0.291748H33.9828C34.0374 6.72285 34.0921 13.1539 34.1447 19.5871Z" fill="black"/>
<path d="M38.0936 19.1683C36.9931 19.3261 35.8885 19.4495 34.782 19.5385C34.7192 13.1236 34.6545 6.70666 34.5918 0.291748H37.7699C37.8771 6.58326 37.9864 12.8768 38.0936 19.1683Z" fill="black"/>
<path d="M42.0102 18.4562C40.9218 18.697 39.8274 18.9013 38.7269 19.0732C38.6116 12.8121 38.4962 6.55292 38.3789 0.291748H41.557C41.7088 6.34657 41.8585 12.4014 42.0102 18.4562Z" fill="black"/>
<path d="M45.8781 17.4508C44.8059 17.7724 43.7256 18.0617 42.6393 18.3146C42.4835 12.3063 42.3277 6.30004 42.1699 0.291748H45.348C45.524 6.01075 45.7021 11.7298 45.8781 17.4508Z" fill="black"/>
<path d="M49.6773 16.15C48.6254 16.5546 47.5653 16.9248 46.4951 17.2606C46.3151 11.6043 46.1371 5.94804 45.957 0.291748H49.1352C49.3152 5.57783 49.4952 10.8639 49.6773 16.15Z" fill="black"/>
<path d="M53.3915 14.5539C52.3659 15.0414 51.3301 15.4925 50.2822 15.9113C50.1042 10.7041 49.9241 5.49691 49.7461 0.291748H52.9242C53.08 5.04579 53.2358 9.79982 53.3915 14.5539Z" fill="black"/>
<path d="M57.0047 12.6642C56.0093 13.2327 55.0019 13.7688 53.9803 14.2684C53.8306 9.60949 53.6829 4.95053 53.5332 0.289551H56.7113C56.8084 4.41444 56.9076 8.53932 57.0047 12.6622V12.6642Z" fill="black"/>
<path d="M60.5004 10.4816C59.5415 11.133 58.5664 11.75 57.5772 12.3326C57.4922 8.31899 57.4072 4.30537 57.3223 0.291748H60.5004V10.4816Z" fill="black"/>
</svg>
