<svg width="60" height="30" viewBox="0 0 60 30" fill="none" xmlns="http://www.w3.org/2000/svg">
<path d="M2.92323 21.9468C1.93398 21.3642 0.958899 20.7472 0 20.0958V9.90597C0.958899 9.25457 1.93398 8.63755 2.92323 8.05493V21.9468Z" fill="black"/>
<path d="M6.51852 23.8829C5.49691 23.3832 4.48945 22.8471 3.49414 22.2786V7.72118C4.48945 7.15272 5.49691 6.61662 6.51852 6.11694V23.8829Z" fill="black"/>
<path d="M10.2177 25.5256C9.16983 25.1069 8.13406 24.6558 7.1084 24.1682V5.83179C8.13406 5.34425 9.16983 4.89313 10.2177 4.47437V25.5256Z" fill="black"/>
<path d="M14.0054 26.8729C12.9352 26.537 11.8752 26.1668 10.8232 25.7622V4.23758C11.8752 3.83298 12.9352 3.46277 14.0054 3.12695C14.0054 11.0429 14.0054 18.9589 14.0054 26.8749V26.8729Z" fill="black"/>
<path d="M17.8609 27.9269C16.7745 27.674 15.6943 27.3847 14.6221 27.0631V2.93682C15.6943 2.61516 16.7745 2.32587 17.8609 2.073V27.9269Z" fill="black"/>
<path d="M21.7716 28.6874C20.6731 28.5155 19.5787 28.3111 18.4883 28.0704V1.92927C19.5767 1.68853 20.6711 1.48421 21.7716 1.31226C21.7716 10.436 21.7716 19.5617 21.7716 28.6854V28.6874Z" fill="black"/>
<path d="M25.7159 29.1528C24.6094 29.0638 23.5048 28.9404 22.4043 28.7826V1.21933C23.5048 1.06154 24.6094 0.938133 25.7159 0.849121V29.1528Z" fill="black"/>
<path d="M29.6793 29.3229C28.5707 29.3168 27.4601 29.2743 26.3535 29.1994C26.3535 19.7339 26.3535 10.2662 26.3535 0.800649C27.4601 0.725798 28.5707 0.683315 29.6793 0.677246V29.3229Z" fill="black"/>
<path d="M33.6442 29.1994C32.5376 29.2743 31.427 29.3168 30.3184 29.3229V0.677246C31.427 0.683315 32.5376 0.725798 33.6442 0.800649V29.1994Z" fill="black"/>
<path d="M37.5929 28.7827C36.4924 28.9405 35.3878 29.0639 34.2812 29.1529V0.847168C35.3878 0.93618 36.4924 1.05958 37.5929 1.21738V28.7807V28.7827Z" fill="black"/>
<path d="M41.5099 28.0706C40.4215 28.3113 39.3271 28.5156 38.2266 28.6876C38.2266 19.5639 38.2266 10.4382 38.2266 1.31445C39.325 1.48641 40.4195 1.69073 41.5099 1.93147V28.0706Z" fill="black"/>
<path d="M45.3775 27.0631C44.3053 27.3847 43.225 27.674 42.1387 27.9269C42.1387 19.3089 42.1387 10.691 42.1387 2.073C43.225 2.32587 44.3053 2.61516 45.3775 2.93682V27.0631Z" fill="black"/>
<path d="M49.1773 25.7622C48.1253 26.1668 47.0653 26.537 45.9951 26.8729V3.12695C47.0653 3.46277 48.1253 3.83298 49.1773 4.23758V25.7622Z" fill="black"/>
<path d="M52.8916 24.1682C51.8659 24.6558 50.8301 25.1069 49.7822 25.5256V4.47437C50.8301 4.89313 51.8659 5.34425 52.8916 5.83179V24.1682Z" fill="black"/>
<path d="M56.5039 22.2786C55.5086 22.8471 54.5011 23.3832 53.4795 23.8829V6.11694C54.5011 6.61662 55.5086 7.15272 56.5039 7.72118V22.2786Z" fill="black"/>
<path d="M60.0004 20.0959C59.0415 20.7473 58.0664 21.3643 57.0771 21.9469V8.05298C58.0664 8.6356 59.0415 9.25261 60.0004 9.90402V20.0938V20.0959Z" fill="black"/>
</svg>
