<svg width="61" height="20" viewBox="0 0 61 20" fill="none" xmlns="http://www.w3.org/2000/svg">
<path d="M57.3219 19.7057C58.3819 19.7057 59.44 19.7057 60.5 19.7057V9.51957C59.5411 8.86839 58.566 8.2516 57.5768 7.66919C57.4918 11.6814 57.4068 15.6936 57.3219 19.7057Z" fill="black"/>
<path d="M53.5344 19.7055C54.5944 19.7055 55.6525 19.7055 56.7125 19.7055C56.8096 15.5821 56.9088 11.4587 57.0059 7.3373C56.0105 6.76904 55.0031 6.23314 53.9815 5.73364C53.8318 10.3909 53.6841 15.0482 53.5344 19.7055Z" fill="black"/>
<path d="M49.7462 19.7057C50.8062 19.7057 51.8642 19.7057 52.9243 19.7057C53.0801 14.9534 53.2358 10.2011 53.3916 5.44874C52.3659 4.96137 51.3302 4.50838 50.2823 4.0918C50.1042 9.29712 49.9242 14.5024 49.7462 19.7057Z" fill="black"/>
<path d="M45.9584 19.7055C47.0185 19.7055 48.0765 19.7055 49.1365 19.7055C49.3166 14.4213 49.4966 9.13709 49.6787 3.8529C48.6268 3.44845 47.5667 3.07837 46.4965 2.74268C46.3165 8.39694 46.1385 14.0512 45.9584 19.7055Z" fill="black"/>
<path d="M42.1698 19.7056C43.2298 19.7056 44.2879 19.7056 45.3479 19.7056C45.5239 13.9887 45.7019 8.2717 45.8779 2.55272C44.8057 2.23118 43.7255 1.94199 42.6391 1.68921C42.4833 7.69535 42.3276 13.6995 42.1698 19.7056Z" fill="black"/>
<path d="M38.3824 19.7057C39.4424 19.7057 40.5005 19.7057 41.5605 19.7057C41.7122 13.653 41.8619 7.60035 42.0137 1.5477C40.9253 1.30705 39.8309 1.1028 38.7304 0.930908C38.615 7.18983 38.4997 13.4467 38.3824 19.7057Z" fill="black"/>
<path d="M34.5939 19.7057C35.6539 19.7057 36.712 19.7057 37.772 19.7057C37.8792 13.4164 37.9885 7.12515 38.0957 0.835896C36.9952 0.678159 35.8906 0.5548 34.7841 0.46582C34.7213 6.87844 34.6566 13.2931 34.5939 19.7057Z" fill="black"/>
<path d="M30.8065 19.7057C31.8666 19.7057 32.9246 19.7057 33.9846 19.7057C34.0393 13.2769 34.0939 6.84812 34.1465 0.417304C33.0399 0.34248 31.9293 0.300012 30.8207 0.293945C30.8166 6.76521 30.8106 13.2344 30.8065 19.7057Z" fill="black"/>
<path d="M27.0172 19.7057C28.0772 19.7057 29.1353 19.7057 30.1953 19.7057C30.1913 13.2344 30.1852 6.76521 30.1812 0.293945C29.0726 0.300012 27.9619 0.34248 26.8553 0.417304C26.91 6.8461 26.9646 13.2749 27.0172 19.7057Z" fill="black"/>
<path d="M23.2301 19.7057C24.2901 19.7057 25.3482 19.7057 26.4082 19.7057C26.3455 13.2931 26.2808 6.87844 26.218 0.46582C25.1115 0.5548 24.0069 0.678159 22.9064 0.835896C23.0136 7.12515 23.1229 13.4164 23.2301 19.7057Z" fill="black"/>
<path d="M19.441 19.7057C20.5011 19.7057 21.5591 19.7057 22.6191 19.7057C22.5038 13.4467 22.3885 7.18983 22.2712 0.930908C21.1727 1.1028 20.0783 1.30705 18.9879 1.5477C19.1396 7.60035 19.2893 13.653 19.441 19.7057Z" fill="black"/>
<path d="M15.6539 19.7056C16.714 19.7056 17.772 19.7056 18.832 19.7056C18.6763 13.6995 18.5205 7.69535 18.3627 1.68921C17.2763 1.94199 16.1961 2.23118 15.1239 2.55272C15.2999 8.26967 15.4779 13.9866 15.6539 19.7056Z" fill="black"/>
<path d="M11.8648 19.7055C12.9249 19.7055 13.9829 19.7055 15.043 19.7055C14.8629 14.0512 14.6849 8.39694 14.5049 2.74268C13.4347 3.07837 12.3746 3.44845 11.3227 3.8529C11.5027 9.13709 11.6828 14.4213 11.8648 19.7055Z" fill="black"/>
<path d="M8.07578 19.7057C9.13583 19.7057 10.1939 19.7057 11.2539 19.7057C11.0759 14.5004 10.8958 9.2951 10.7178 4.0918C9.6699 4.51041 8.63412 4.96137 7.60847 5.44874C7.76424 10.2011 7.92001 14.9534 8.07578 19.7057Z" fill="black"/>
<path d="M4.28867 19.7056C5.34872 19.7056 6.40675 19.7056 7.4668 19.7056C7.3171 15.0483 7.16942 10.391 7.01972 5.73169C5.9981 6.23119 4.99065 6.76709 3.99534 7.33535C4.09244 11.4588 4.19157 15.5822 4.28867 19.7036V19.7056Z" fill="black"/>
<path d="M0.499611 19.7057C1.55966 19.7057 2.61769 19.7057 3.67773 19.7057C3.59277 15.6936 3.5078 11.6814 3.42284 7.66919C2.43359 8.2516 1.45851 8.86839 0.499611 9.51957V19.7057Z" fill="black"/>
</svg>
