<svg width="60" height="18" viewBox="0 0 60 18" fill="none" xmlns="http://www.w3.org/2000/svg">
<mask id="mask0_631_1711" style="mask-type:luminance" maskUnits="userSpaceOnUse" x="0" y="0" width="60" height="18">
<path d="M60 17.4935C52.6802 16.4352 40.0644 18.3588 29.0847 17.4935C18.1051 16.6282 6.26014 19.148 0 17.1665V0.948404C10.1122 -1.74515 18.2017 2.29518 26.7733 0.948404C35.3449 -0.398371 40.9308 0.178494 50.6575 1.8137C55.4726 2.77552 59.9989 1.04379 59.9989 1.04379V17.4924L60 17.4935Z" fill="white"/>
</mask>
<g mask="url(#mask0_631_1711)">
<path d="M3.17782 22.506H0V-4.55786H3.17782V22.506Z" fill="black"/>
<path d="M6.96493 22.506H3.78711V-4.55786H6.96493V22.506Z" fill="black"/>
<path d="M10.754 22.506H7.57617V-4.55786H10.754V22.506Z" fill="black"/>
<path d="M14.5411 22.506H11.3633V-4.55786H14.5411V22.506Z" fill="black"/>
<path d="M18.3302 22.506H15.1523V-4.55786H18.3302V22.506Z" fill="black"/>
<path d="M22.1192 22.506H18.9414V-4.55786H22.1192V22.506Z" fill="black"/>
<path d="M25.9063 22.506H22.7285V-4.55786H25.9063V22.506Z" fill="black"/>
<path d="M29.6934 22.506H26.5156V-4.55786H29.6934V22.506Z" fill="black"/>
<path d="M33.4825 22.506H30.3047V-4.55786H33.4825V22.506Z" fill="black"/>
<path d="M37.2716 22.506H34.0938V-4.55786H37.2716V22.506Z" fill="black"/>
<path d="M41.0587 22.506H37.8809V-4.55786H41.0587V22.506Z" fill="black"/>
<path d="M44.8458 22.506H41.668V-4.55786H44.8458V22.506Z" fill="black"/>
<path d="M48.6349 22.506H45.457V-4.55786H48.6349V22.506Z" fill="black"/>
<path d="M52.4239 22.506H49.2461V-4.55786H52.4239V22.506Z" fill="black"/>
<path d="M56.211 22.506H53.0332V-4.55786H56.211V22.506Z" fill="black"/>
<path d="M60.0001 22.506H56.8223V-4.55786H60.0001V22.506Z" fill="black"/>
</g>
</svg>
