<svg width="60" height="20" viewBox="0 0 60 20" fill="none" xmlns="http://www.w3.org/2000/svg">
<path d="M3.17813 0.0749035C2.11808 0.0263042 1.06005 -1.90735e-05 0 -1.90735e-05V10.1997C1.06005 10.1997 2.11808 10.2261 3.17813 10.2747V0.0749035Z" fill="black"/>
<path d="M6.96524 0.342237C5.90519 0.243014 4.84716 0.162016 3.78711 0.105317C3.78711 3.50524 3.78711 6.90515 3.78711 10.3051C4.84716 10.3618 5.90519 10.4428 6.96524 10.542V0.342237Z" fill="black"/>
<path d="M10.7543 0.779493C9.69425 0.635721 8.63622 0.510173 7.57617 0.40285V10.6026C8.63622 10.7099 9.69425 10.8355 10.7543 10.9792C10.7543 7.57933 10.7543 4.17941 10.7543 0.779493Z" fill="black"/>
<path d="M14.5414 1.35664C13.4814 1.17845 12.4233 1.0124 11.3633 0.862551V11.0623C12.4233 11.2122 13.4814 11.3762 14.5414 11.5564V1.35664Z" fill="black"/>
<path d="M18.3305 2.04732C17.2704 1.84077 16.2124 1.64435 15.1523 1.4621V11.6619C16.2124 11.8461 17.2704 12.0425 18.3305 12.2471V2.04732Z" fill="black"/>
<path d="M22.1176 2.82271C21.0575 2.59591 19.9995 2.37722 18.9395 2.16662V12.3664C19.9995 12.577 21.0575 12.7957 22.1176 13.0225V2.82271Z" fill="black"/>
<path d="M25.9066 3.65498C24.8466 3.41604 23.7886 3.18114 22.7285 2.95232V13.1521C23.7886 13.3809 24.8466 13.6158 25.9066 13.8547V3.65498Z" fill="black"/>
<path d="M29.6938 4.5198C28.6337 4.2768 27.5757 4.03381 26.5156 3.79486V13.9926C27.5757 14.2315 28.6337 14.4745 29.6938 14.7175V4.51778V4.5198Z" fill="black"/>
<path d="M33.4828 5.38447C32.4228 5.14553 31.3647 4.90253 30.3047 4.65954V14.8593C31.3647 15.1023 32.4228 15.3453 33.4828 15.5842V5.38447Z" fill="black"/>
<path d="M37.2699 6.22481C36.2099 5.99599 35.1518 5.76109 34.0918 5.52214V15.7219C35.1518 15.9608 36.2099 16.1957 37.2699 16.4246V6.22481Z" fill="black"/>
<path d="M41.059 7.0124C39.9989 6.80181 38.9409 6.58311 37.8809 6.35632V16.5561C38.9409 16.7829 39.9989 17.0016 41.059 17.2122V7.0124Z" fill="black"/>
<path d="M44.8461 7.71926C43.786 7.53499 42.728 7.33857 41.668 7.13405V17.3318C42.728 17.5383 43.786 17.7347 44.8461 17.917V7.71724V7.71926Z" fill="black"/>
<path d="M48.6352 8.31668C47.5751 8.16683 46.5171 8.00281 45.457 7.82461V18.0223C46.5171 18.2005 47.5751 18.3666 48.6352 18.5144V8.31465V8.31668Z" fill="black"/>
<path d="M52.4242 8.7781C51.3642 8.67078 50.3061 8.54523 49.2461 8.40146V18.5992C50.3061 18.743 51.3642 18.8685 52.4242 18.9758V8.77608V8.7781Z" fill="black"/>
<path d="M56.2113 9.07393C55.1513 9.01723 54.0933 8.93623 53.0332 8.83701V19.0368C54.0933 19.136 55.1513 19.217 56.2113 19.2737C56.2113 15.8738 56.2113 12.4738 56.2113 9.07393Z" fill="black"/>
<path d="M60.0004 9.17915C58.9403 9.17915 57.8823 9.15283 56.8223 9.10423V19.304C57.8823 19.3526 58.9403 19.3789 60.0004 19.3789V9.17915Z" fill="black"/>
</svg>
