<svg width="61" height="31" viewBox="0 0 61 31" fill="none" xmlns="http://www.w3.org/2000/svg">
<path d="M5.83639 21.6658C4.77334 20.9512 4.24278 20.5958 3.17973 19.8813C2.28585 14.2185 1.39388 8.55572 0.5 2.89294C1.7822 2.7969 2.42233 2.74888 3.70453 2.65283C4.41579 8.98984 5.12513 15.3288 5.83639 21.6658Z" fill="black"/>
<path d="M9.00311 23.7922C7.94006 23.0777 7.4095 22.7223 6.34645 22.0077C5.67171 15.5401 4.99505 9.07249 4.32031 2.60486C5.60251 2.50881 6.24264 2.46079 7.52484 2.36475C8.01696 9.50661 8.511 16.6504 9.00311 23.7922Z" fill="black"/>
<path d="M12.1679 25.9205C11.1048 25.2059 10.5743 24.8505 9.51122 24.136C9.0537 16.8635 8.59619 9.59099 8.13867 2.32043C9.42087 2.22439 10.061 2.17637 11.3432 2.08032C11.6181 10.027 11.893 17.9737 12.1679 25.9224V25.9205Z" fill="black"/>
<path d="M15.3366 28.0489C14.2735 27.3343 13.7429 26.9789 12.6799 26.2644C12.4396 18.187 12.2012 10.1097 11.9609 2.0343C13.2431 1.93826 13.8833 1.89023 15.1655 1.79419C15.2231 10.5458 15.2789 19.2973 15.3366 28.0508V28.0489Z" fill="black"/>
<path d="M18.5033 30.1773C17.4402 29.4627 16.9097 29.1074 15.8466 28.3928C15.8255 19.5106 15.8024 10.6304 15.7812 1.74817C17.0634 1.65212 17.7036 1.6041 18.9858 1.50806C18.8243 11.0645 18.6647 20.6209 18.5033 30.1773Z" fill="black"/>
<path d="M22.1086 30.4001C20.8399 30.5787 20.0767 31.2337 19.0137 30.5191C19.2097 20.8321 19.4058 11.147 19.6019 1.45996C20.8841 1.36392 21.5242 1.31589 22.8064 1.21985C22.5738 10.9472 22.3412 20.6727 22.1086 30.4001Z" fill="black"/>
<path d="M25.8867 29.8698C24.618 30.0485 23.9855 30.1368 22.7168 30.3136C22.9513 20.5996 23.1858 10.8857 23.4223 1.1737C24.7045 1.07766 25.3446 1.02964 26.6268 0.933594C26.3808 10.5784 26.1328 20.2251 25.8867 29.8698Z" fill="black"/>
<path d="M29.666 29.3397C28.3973 29.5184 27.7648 29.6067 26.4961 29.7835C26.7441 20.1502 26.994 10.5189 27.242 0.885619C28.5242 0.789574 29.1643 0.741552 30.4465 0.645508C30.187 10.2096 29.9255 19.7737 29.666 29.3378V29.3397Z" fill="black"/>
<path d="M33.4453 28.8095C32.1766 28.9882 31.5441 29.0765 30.2754 29.2532C30.5388 19.7026 30.8002 10.15 31.0635 0.599364C32.3457 0.50332 32.9859 0.455297 34.2681 0.359253C33.9932 9.84268 33.7202 19.3261 33.4453 28.8095Z" fill="black"/>
<path d="M37.2246 28.2794C35.9559 28.4581 35.3234 28.5464 34.0547 28.7232C34.3315 19.2532 34.6083 9.78321 34.8832 0.313231C36.1654 0.217187 36.8055 0.169165 38.0877 0.0731201C37.7994 9.47587 37.513 18.8767 37.2246 28.2794Z" fill="black"/>
<path d="M41.0039 27.7492C39.7352 27.9279 39.1027 28.0162 37.834 28.193C38.1243 18.8037 38.4145 9.41436 38.7048 0.0269858C39.987 -0.0690586 40.6098 0.0999795 41.8613 0.395796C41.5768 9.51425 41.2903 18.6308 41.0058 27.7492H41.0039Z" fill="black"/>
<path d="M44.7832 27.221C43.5145 27.3997 42.882 27.488 41.6133 27.6647C41.8959 18.6231 42.1784 9.5815 42.461 0.537964C43.7125 0.833781 44.3372 0.981689 45.5887 1.27943C45.3195 9.92726 45.0523 18.5732 44.7832 27.221Z" fill="black"/>
<path d="M48.5625 26.6908C47.2938 26.8694 46.6613 26.9578 45.3926 27.1345C45.6579 18.5635 45.9231 9.99251 46.1884 1.42151C47.4399 1.71733 48.0646 1.86523 49.3161 2.16297C49.0642 10.3383 48.8143 18.5155 48.5625 26.6908Z" fill="black"/>
<path d="M52.3418 26.1606C51.0731 26.3393 50.4406 26.4277 49.1719 26.6044C49.4199 18.504 49.6678 10.4036 49.9177 2.30322C51.1692 2.59904 51.7939 2.74695 53.0454 3.04469C52.8108 10.7494 52.5763 18.454 52.3437 26.1606H52.3418Z" fill="black"/>
<path d="M56.1211 25.6305C54.8524 25.8092 54.2199 25.8975 52.9512 26.0743C53.1819 18.4445 53.4145 10.8167 53.6451 3.18689C54.8966 3.48271 55.5213 3.63061 56.7728 3.92835C56.5555 11.1624 56.3383 18.3965 56.1211 25.6305Z" fill="black"/>
<path d="M59.9004 25.1004C58.6317 25.279 57.9992 25.3674 56.7305 25.5441C56.9438 18.385 57.1591 11.2278 57.3725 4.0686C58.624 4.36442 59.2487 4.51233 60.5002 4.80815C60.3002 11.5716 60.1003 18.335 59.9004 25.0985V25.1004Z" fill="black"/>
</svg>
