<svg width="60" height="19" viewBox="0 0 60 19" fill="none" xmlns="http://www.w3.org/2000/svg">
<path d="M3.17812 2.19347C2.11807 2.72022 1.06005 3.35392 0 4.10872V14.2722C1.06005 13.5194 2.11807 12.8837 3.17812 12.357V2.19146V2.19347Z" fill="black"/>
<path d="M6.96425 0.744478C5.90421 1.03509 4.84618 1.41653 3.78613 1.90089C3.78613 5.28939 3.78613 8.6779 3.78613 12.0664C4.84618 11.58 5.90421 11.1986 6.96425 10.91V0.744478Z" fill="black"/>
<path d="M10.7543 0.0785885C9.69425 0.167388 8.63622 0.332878 7.57617 0.587168V10.7527C8.63622 10.4984 9.69425 10.3329 10.7543 10.2441C10.7543 6.8556 10.7543 3.46709 10.7543 0.0785885Z" fill="black"/>
<path d="M14.5414 0.068368C13.4814 -0.00832272 12.4233 -0.0224504 11.3633 0.0360765V10.2016C12.4233 10.1431 13.4814 10.1572 14.5414 10.2339V0.068368Z" fill="black"/>
<path d="M18.3305 0.583015C17.2704 0.377162 16.2124 0.217728 15.1523 0.118837V10.2844C16.2124 10.3853 17.2704 10.5427 18.3305 10.7485V0.583015Z" fill="black"/>
<path d="M22.1176 1.49732C21.0575 1.19863 19.9995 0.930219 18.9395 0.70822V10.8737C19.9995 11.0978 21.0575 11.3642 22.1176 11.6628V1.49732Z" fill="black"/>
<path d="M25.9066 2.67799C24.8466 2.32279 23.7886 1.98172 22.7285 1.67294V11.8385C23.7886 12.1493 24.8466 12.4883 25.9066 12.8435V2.67799Z" fill="black"/>
<path d="M29.6937 4.00001C28.6337 3.62261 27.5757 3.24723 26.5156 2.88598V13.0515C27.5757 13.4128 28.6337 13.7881 29.6937 14.1655V4.00001Z" fill="black"/>
<path d="M33.4818 5.32984C32.4218 4.96859 31.3638 4.59321 30.3037 4.21581V14.3813C31.3638 14.7587 32.4218 15.1341 33.4818 15.4954V5.32984Z" fill="black"/>
<path d="M37.2699 6.54273C36.2099 6.23194 35.1518 5.89288 34.0918 5.53769V15.7032C35.1518 16.0584 36.2099 16.3995 37.2699 16.7083V6.54273Z" fill="black"/>
<path d="M41.059 7.50758C39.9989 7.28356 38.9409 7.01716 37.8809 6.71847V16.884C38.9409 17.1827 39.9989 17.4511 41.059 17.6731V7.50758Z" fill="black"/>
<path d="M44.8451 8.09651C43.7851 7.9956 42.727 7.83818 41.667 7.63233V17.7958C42.727 18.0017 43.7851 18.1611 44.8451 18.26V8.09449V8.09651Z" fill="black"/>
<path d="M48.6342 8.17954C47.5741 8.23806 46.5161 8.22394 45.4561 8.14725V18.3128C46.5161 18.3895 47.5741 18.4036 48.6342 18.3451V8.17954Z" fill="black"/>
<path d="M52.4242 7.62839C51.3642 7.88268 50.3061 8.04817 49.2461 8.13697V18.3025C50.3061 18.2137 51.3642 18.0482 52.4242 17.7939V7.62839Z" fill="black"/>
<path d="M56.2113 6.31479C55.1513 6.80117 54.0933 7.1826 53.0332 7.4712V17.6367C54.0933 17.3461 55.1513 16.9647 56.2113 16.4803C56.2113 13.0918 56.2113 9.7033 56.2113 6.31479Z" fill="black"/>
<path d="M60.0004 4.10674C58.9403 4.85952 57.8823 5.49524 56.8223 6.02198V16.1875C57.8823 15.6608 58.9403 15.0271 60.0004 14.2723V4.10674Z" fill="black"/>
</svg>
